<?xml version="1.0" encoding="UTF-8" standalone="no"?>
<svg width="580px" height="184px" viewBox="0 0 580 184" version="1.1" xmlns="http://www.w3.org/2000/svg" xmlns:xlink="http://www.w3.org/1999/xlink">
    <!-- Generator: Sketch 49.1 (51147) - http://www.bohemiancoding.com/sketch -->
    <title>横版_黑 100%  </title>
    <desc>Created with Sketch.</desc>
    <defs></defs>
    <g id="横版_黑-100%--" stroke="none" stroke-width="1" fill="none" fill-rule="evenodd">
        <g id="横版2" transform="translate(40.000000, 40.000000)" fill="#202D40">
            <g id="横版1">
                <g id="Logo">
                    <g id="Slogan" transform="translate(167.000000, 77.000000)">
                        <path d="M11.1184645,5.46943698 C11.0314702,5.04423037 10.8687908,4.64679236 10.6312962,4.2779907 C10.3938017,3.90832128 10.0980209,3.5872469 9.74134406,3.31389979 C9.38553719,3.04055269 8.97579382,2.82534607 8.51298391,2.66914773 C8.05017399,2.51294938 7.55343628,2.43485021 7.02277077,2.43485021 C6.27113963,2.43485021 5.58910396,2.56935434 4.97492388,2.8383626 C4.36161375,3.10737087 3.83964767,3.50480888 3.40815572,4.03067665 C2.97753371,4.55567665 2.64434537,5.21084194 2.41120052,5.99617252 C2.17805568,6.78323864 2.06061331,7.6961312 2.06061331,8.73832128 C2.06061331,9.7796436 2.17805568,10.6977428 2.41120052,11.4926188 C2.64434537,12.2866271 2.97753371,12.9539411 3.40815572,13.4910899 C3.83964767,14.0299742 4.35813397,14.4386932 4.96361462,14.7155114 C5.56909526,14.9940651 6.24330144,15.1329081 6.98710309,15.1329081 C8.11107003,15.1329081 9.03668987,14.8569576 9.76483254,14.3059246 C10.4929752,13.7540238 10.9444759,12.9487345 11.1184645,11.889189 L12.1032405,11.889189 C12.0084167,12.5677841 11.8144193,13.1726188 11.5221183,13.7062965 C11.2289474,14.2399742 10.8609613,14.6894783 10.4181601,15.0539411 C9.97448891,15.4192717 9.46470204,15.6969576 8.88705959,15.8878667 C8.30941714,16.0796436 7.68392779,16.1742304 7.01146151,16.1742304 C6.09280122,16.1742304 5.26809482,15.9989411 4.53647238,15.6474948 C3.80397999,15.2951808 3.18110048,14.7979494 2.6669639,14.1558006 C2.15195737,13.5136519 1.7561331,12.7335279 1.47949108,11.818032 C1.20284906,10.9025362 1.06365811,9.87596591 1.06365811,8.73832128 C1.06365811,7.61022211 1.20284906,6.59319731 1.47949108,5.69071798 C1.7561331,4.78823864 2.15369726,4.01679236 2.6730535,3.37898244 C3.19066986,2.74030475 3.8161592,2.2500155 4.54778164,1.9072469 C5.28027403,1.56447831 6.10063071,1.39352789 7.01146151,1.39352789 C7.6360809,1.39352789 8.23199217,1.49245351 8.79832536,1.69204029 C9.36291866,1.89162707 9.87183558,2.17191632 10.3233362,2.53204029 C10.7739669,2.89303202 11.1541322,3.32170971 11.4629622,3.82241219 C11.7709221,4.32137913 11.9849282,4.86980888 12.1032405,5.46943698 L11.1184645,5.46943698 L11.1184645,5.46943698 Z" id="Fill-1"></path>
                        <polygon id="Fill-3" points="29.9857982 15.9139866 22.3294258 15.9139866 22.3294258 1.65220971 23.2794041 1.65220971 23.2794041 14.8726643 29.9857982 14.8726643"></polygon>
                        <path d="M45.3389952,15.1326477 C46.0827969,15.1326477 46.7691823,14.9912014 47.3990213,14.7100444 C48.0279904,14.4271519 48.5717051,14.0123585 49.0310352,13.4656643 C49.4894954,12.9181023 49.8461722,12.2481849 50.0993258,11.4541767 C50.3524793,10.6593006 50.4786211,9.75421798 50.4786211,8.73806095 C50.4786211,7.71322624 50.3498695,6.80987913 50.0932362,6.0288874 C49.8357329,5.24702789 49.4799261,4.59012707 49.0249456,4.05558161 C48.5699652,3.52190393 48.0314702,3.11839153 47.4103306,2.84504442 C46.789191,2.57082955 46.1106351,2.43458988 45.3746629,2.43458988 C44.6230318,2.43458988 43.9322967,2.57343285 43.3033275,2.8511188 C42.6743584,3.12880475 42.1297738,3.53578822 41.6713136,4.06946591 C41.2119835,4.6031436 40.8535668,5.26091219 40.5969334,6.04190393 C40.3394302,6.82376343 40.2106786,7.72190393 40.2106786,8.73806095 C40.2106786,9.75421798 40.3368204,10.6593006 40.5908438,11.4541767 C40.8439974,12.2481849 41.1980644,12.9181023 41.6530448,13.4656643 C42.1080252,14.0123585 42.65,14.4271519 43.2789691,14.7100444 C43.9088082,14.9912014 44.5951936,15.1326477 45.3389952,15.1326477 M45.3511744,1.39326756 C46.2367769,1.39326756 47.0562636,1.56595351 47.8078947,1.91392872 C48.5595259,2.26103616 49.2067638,2.75566426 49.7487386,3.39868079 C50.2907134,4.04082955 50.7143758,4.8131436 51.018856,5.7164907 C51.3233362,6.61983781 51.4764463,7.62731715 51.4764463,8.73806095 C51.4764463,9.84012707 51.3259461,10.8476064 51.0249456,11.7587634 C50.7239452,12.6707882 50.3028926,13.4543833 49.7609178,14.1095486 C49.2180731,14.7655816 48.573445,15.274094 47.8261635,15.6333502 C47.0780122,15.9943419 46.2533058,16.17397 45.3511744,16.17397 C44.4490431,16.17397 43.6217268,15.9943419 42.8700957,15.6333502 C42.1175946,15.274094 41.4712266,14.7673171 40.9292518,14.1164907 C40.3872771,13.4656643 39.9653545,12.6846725 39.665224,11.7726477 C39.3642236,10.8606229 39.2137234,9.84880475 39.2137234,8.73806095 C39.2137234,7.61863946 39.3659635,6.60682128 39.6704437,5.70347417 C39.9749239,4.80099483 40.4011962,4.03041632 40.9466507,3.39173864 C41.4929752,2.75392872 42.1402131,2.26103616 42.8874946,1.91392872 C43.6356459,1.56595351 44.4560026,1.39326756 45.3511744,1.39326756" id="Fill-5"></path>
                        <path d="M66.4733145,16.1741436 C65.6973249,16.1741436 65.035298,16.0847634 64.4854937,15.9077386 C63.9348195,15.7298461 63.4780992,15.4886064 63.1144628,15.1840196 C62.7499565,14.8811684 62.4611353,14.5253833 62.2479991,14.1166643 C62.033993,13.7079452 61.8713136,13.274061 61.7608308,12.8150114 C61.650348,12.3542262 61.5807525,11.8769535 61.5529143,11.3823254 C61.5259461,10.8868295 61.511157,10.405218 61.511157,9.93662293 L61.511157,1.65290393 L62.4611353,1.65290393 L62.4611353,9.89757335 C62.4611353,10.9831519 62.5498695,11.8656725 62.7282079,12.5468709 C62.9065463,13.2280692 63.1675294,13.7608791 63.512027,14.1426973 C63.8556546,14.5253833 64.2758373,14.7848461 64.7699652,14.9245568 C65.2640931,15.0633998 65.8321662,15.1328213 66.4733145,15.1328213 C67.1222923,15.1328213 67.6981949,15.0633998 68.2001522,14.9245568 C68.7029796,14.7848461 69.1222923,14.52278 69.4589604,14.1357552 C69.7947586,13.7504659 70.050522,13.2185238 70.2245107,12.5407965 C70.3984993,11.863937 70.4854937,10.9831519 70.4854937,9.89757335 L70.4854937,1.65290393 L71.4354719,1.65290393 L71.4354719,9.93662293 C71.4354719,10.9172014 71.3597869,11.7945155 71.2101566,12.5676973 C71.0596564,13.3400114 70.7986733,13.9925733 70.4263375,14.5271188 C70.0540017,15.0607965 69.5476946,15.4695155 68.9065463,15.7515403 C68.2662679,16.0335651 67.4546107,16.1741436 66.4733145,16.1741436" id="Fill-7"></path>
                        <path d="M91.5967595,8.67271798 C91.5967595,7.73552789 91.511505,6.89726343 91.341866,6.15966012 C91.1713571,5.42205682 90.8720966,4.79379236 90.4449543,4.27833781 C90.0178121,3.76114773 89.4462592,3.36804855 88.7302958,3.09817252 C88.0134624,2.83003202 87.1095911,2.69466012 86.0169421,2.69466012 L83.0617442,2.69466012 L83.0617442,14.8729246 L86.0169421,14.8729246 C87.1017616,14.8729246 88.0021531,14.7332138 88.7181166,14.4555279 C89.43408,14.1778419 90.0056329,13.7717262 90.4336451,13.2380486 C90.8607873,12.7035031 91.1617877,12.0544122 91.3357764,11.2907758 C91.5088952,10.5271395 91.5967595,9.65416426 91.5967595,8.67271798 M92.6058939,8.67271798 C92.6058939,13.5001147 90.4171161,15.9142469 86.0413006,15.9142469 L82.111766,15.9142469 L82.111766,1.66635434 L86.0413006,1.66635434 C88.2335581,1.66635434 89.8751414,2.24602376 90.9677903,3.4053626 C92.0595694,4.56470145 92.6058939,6.32019731 92.6058939,8.67271798" id="Fill-9"></path>
                        <path d="M130.184319,8.67271798 C130.184319,7.73552789 130.099065,6.89726343 129.929426,6.15966012 C129.759787,5.42205682 129.460526,4.79379236 129.034254,4.27833781 C128.607112,3.76114773 128.034689,3.36804855 127.318726,3.09817252 C126.602762,2.83003202 125.698021,2.69466012 124.606242,2.69466012 L121.650174,2.69466012 L121.650174,14.8729246 L124.606242,14.8729246 C125.690191,14.8729246 126.590583,14.7332138 127.306546,14.4555279 C128.02338,14.1778419 128.594933,13.7717262 129.022075,13.2380486 C129.448347,12.7035031 129.749348,12.0544122 129.924206,11.2907758 C130.097325,10.5271395 130.184319,9.65416426 130.184319,8.67271798 M131.193454,8.67271798 C131.193454,13.5001147 129.005546,15.9142469 124.62973,15.9142469 L120.701066,15.9142469 L120.701066,1.66635434 L124.62973,1.66635434 C126.821988,1.66635434 128.463571,2.24602376 129.55535,3.4053626 C130.647999,4.56470145 131.193454,6.32019731 131.193454,8.67271798" id="Fill-11"></path>
                        <polygon id="Fill-13" points="150.726555 15.9139866 141.336385 15.9139866 141.336385 1.65220971 150.405546 1.65220971 150.405546 2.69526756 142.286364 2.69526756 142.286364 7.96956508 149.894889 7.96956508 149.894889 9.01175517 142.286364 9.01175517 142.286364 14.8726643 150.726555 14.8726643"></polygon>
                        <polygon id="Fill-15" points="171.076794 1.65255682 165.984145 15.9143337 164.761005 15.9143337 159.669226 1.65255682 160.726207 1.65255682 165.378665 14.611813 170.031992 1.65255682"></polygon>
                        <polygon id="Fill-17" points="189.932645 15.9139866 180.542475 15.9139866 180.542475 1.65220971 189.611635 1.65220971 189.611635 2.69526756 181.492453 2.69526756 181.492453 7.96956508 189.100979 7.96956508 189.100979 9.01175517 181.492453 9.01175517 181.492453 14.8726643 189.932645 14.8726643"></polygon>
                        <polygon id="Fill-19" points="207.82512 15.9139866 200.168747 15.9139866 200.168747 1.65220971 201.118726 1.65220971 201.118726 14.8726643 207.82512 14.8726643"></polygon>
                        <path d="M223.1791,15.1326477 C223.922031,15.1326477 224.609287,14.9912014 225.238256,14.7100444 C225.867225,14.4271519 226.411809,14.0123585 226.87027,13.4656643 C227.3296,12.9181023 227.685407,12.2481849 227.93943,11.4541767 C228.192584,10.6593006 228.318726,9.75421798 228.318726,8.73806095 C228.318726,7.71322624 228.189974,6.80987913 227.933341,6.0288874 C227.675837,5.24702789 227.32003,4.59012707 226.86418,4.05558161 C226.4092,3.52190393 225.871575,3.11839153 225.250435,2.84504442 C224.628425,2.57082955 223.950739,2.43458988 223.213897,2.43458988 C222.462266,2.43458988 221.772401,2.57343285 221.142562,2.8511188 C220.514463,3.12880475 219.969878,3.53578822 219.510548,4.06946591 C219.052088,4.6031436 218.693671,5.26091219 218.436168,6.04190393 C218.179535,6.82376343 218.049913,7.72190393 218.049913,8.73806095 C218.049913,9.75421798 218.176925,10.6593006 218.430078,11.4541767 C218.683232,12.2481849 219.037299,12.9181023 219.493149,13.4656643 C219.94813,14.0123585 220.490104,14.4271519 221.119074,14.7100444 C221.748043,14.9912014 222.435298,15.1326477 223.1791,15.1326477 M223.190409,1.39326756 C224.076881,1.39326756 224.896368,1.56595351 225.647999,1.91392872 C226.39963,2.26103616 227.045998,2.75566426 227.587973,3.39868079 C228.129948,4.04082955 228.55448,4.8131436 228.85809,5.7164907 C229.163441,6.61983781 229.315681,7.62731715 229.315681,8.73806095 C229.315681,9.84012707 229.165181,10.8476064 228.86418,11.7587634 C228.56318,12.6707882 228.142127,13.4543833 227.600152,14.1095486 C227.058177,14.7655816 226.413549,15.274094 225.665398,15.6333502 C224.918117,15.9943419 224.09254,16.17397 223.190409,16.17397 C222.289147,16.17397 221.460961,15.9943419 220.70933,15.6333502 C219.957699,15.274094 219.311331,14.7673171 218.769356,14.1164907 C218.226512,13.4656643 217.804589,12.6846725 217.505328,11.7726477 C217.203458,10.8606229 217.053828,9.84880475 217.053828,8.73806095 C217.053828,7.61863946 217.206068,6.60682128 217.510548,5.70347417 C217.815028,4.80099483 218.240431,4.03041632 218.786755,3.39173864 C219.33221,2.75392872 219.979448,2.26103616 220.727599,1.91392872 C221.47488,1.56595351 222.296107,1.39326756 223.190409,1.39326756" id="Fill-21"></path>
                        <path d="M240.300979,8.85573037 L244.230513,8.85573037 C244.89428,8.85573037 245.460613,8.78630888 245.927773,8.64746591 C246.394933,8.50862293 246.775968,8.30382955 247.072619,8.03482128 C247.370139,7.76581302 247.585015,7.43345764 247.719856,7.03862293 C247.854698,6.64378822 247.921683,6.1856064 247.921683,5.66407748 C247.921683,5.0306064 247.82164,4.51862293 247.618943,4.1272593 C247.417986,3.7376312 247.143954,3.43564773 246.800326,3.22217665 C246.455829,3.01044112 246.058264,2.86899483 245.607634,2.79957335 C245.156133,2.72928409 244.681144,2.69457335 244.182666,2.69457335 L240.300979,2.69457335 L240.300979,8.85573037 Z M239.351,1.65238326 L244.075663,1.65238326 C244.708112,1.65238326 245.318813,1.71052376 245.903415,1.82246591 C246.488886,1.93527583 247.005633,2.14180475 247.452784,2.44031715 C247.899935,2.74056508 248.256612,3.14668079 248.521074,3.65953202 C248.786407,4.1715155 248.918639,4.82234194 248.918639,5.61201136 C248.918639,7.00998657 248.516725,8.07473864 247.713767,8.80279649 C246.910809,9.53172211 245.737255,9.89705269 244.194846,9.89705269 L240.300979,9.89705269 L240.300979,15.9141601 L239.351,15.9141601 L239.351,1.65238326 Z" id="Fill-23"></path>
                        <polygon id="Fill-25" points="271.050609 15.9139866 270.101501 15.9139866 270.101501 3.35911054 265.423815 15.9139866 264.427729 15.9139866 259.761353 3.35911054 259.761353 15.9139866 258.812244 15.9139866 258.812244 1.65220971 260.189365 1.65220971 264.925337 14.6114659 269.696977 1.65220971 271.050609 1.65220971"></polygon>
                        <polygon id="Fill-27" points="291.034689 15.9139866 281.644519 15.9139866 281.644519 1.65220971 290.71368 1.65220971 290.71368 2.69526756 282.594498 2.69526756 282.594498 7.96956508 290.203023 7.96956508 290.203023 9.01175517 282.594498 9.01175517 282.594498 14.8726643 291.034689 14.8726643"></polygon>
                        <polygon id="Fill-29" points="311.254959 15.9139866 310.00833 15.9139866 302.078795 2.88964773 302.078795 15.9139866 301.128817 15.9139866 301.128817 1.65220971 302.434602 1.65220971 310.30498 14.6505155 310.30498 1.65220971 311.254959 1.65220971"></polygon>
                        <polygon id="Fill-31" points="330.787016 2.69492045 326.239822 2.69492045 326.239822 15.9136395 325.290713 15.9136395 325.290713 2.69492045 320.792236 2.69492045 320.792236 1.65273037 330.787016 1.65273037"></polygon>
                    </g>
                    <g id="Coding" transform="translate(165.000000, 13.000000)">
                        <path d="M42.4129898,45.4343261 L42.1725464,45.6481082 C42.1385707,45.6784012 38.6774059,48.6895267 31.0049976,48.6895267 C19.9350199,48.6895267 10.5838639,38.5240571 10.5838639,26.4916724 C10.5838639,14.4592878 19.9350199,4.29381818 31.0049976,4.29381818 C36.5918211,4.29381818 41.1863802,6.30267769 45.0508974,10.4346446 L46.5092387,11.992571 L46.5092387,1.65832607 L45.9464618,1.46098873 C45.774841,1.40213373 41.6298065,0 31.0049976,0 C13.9091259,0 0,11.8835162 0,26.4916724 C0,42.3375147 12.4603675,52.9833449 31.0049976,52.9833449 C41.8841886,52.9833449 46.1816782,46.9991766 46.3593972,46.7438497 L47.2749985,45.4317295 L42.4129898,45.4343261 Z" id="Fill-33"></path>
                        <polygon id="Fill-35" points="223.322751 53.4064517 230.275572 53.4064517 230.275572 19.2869986 223.322751 12.1854509"></polygon>
                        <path d="M107.462851,26.9152986 C107.462851,39.1554068 99.7826022,49.1122873 90.3417155,49.1122873 C80.9017,49.1122873 73.2205799,39.1554068 73.2205799,26.9152986 C73.2205799,14.6751904 80.9017,4.71744433 90.3417155,4.71744433 C99.7826022,4.71744433 107.462851,14.6751904 107.462851,26.9152986 M90.3417155,0.423626146 C75.0657213,0.423626146 62.6375872,12.3071423 62.6375872,26.9152986 C62.6375872,41.5225893 75.0657213,53.4061055 90.3417155,53.4061055 C105.61771,53.4061055 118.045844,41.5225893 118.045844,26.9152986 C118.045844,12.3071423 105.61771,0.423626146 90.3417155,0.423626146" id="Fill-37"></path>
                        <path d="M152.880773,0.425789932 L152.874675,0.425789932 C152.777104,0.417134786 150.444977,0.224125019 146.866204,0.224125019 C144.766681,0.224125019 142.675869,0.291635162 140.650395,0.424924418 C133.175743,0.917402254 128.60819,1.58817611 128.562889,1.59510023 L127.845915,1.70155853 L127.845915,5.53146086 L128.716215,5.50203336 C128.788522,5.49943681 136.020989,5.25536168 139.453405,5.25536168 C142.880594,5.25536168 148.324546,5.49943681 148.391626,5.50203336 C161.732748,5.90536319 169.924375,18.2458711 169.924375,26.9148658 C169.924375,39.154974 162.244126,49.1127201 152.801497,49.1127201 L144.745773,49.1334924 L144.745773,12.4071092 L134.161909,12.4071092 L134.161909,53.4065382 L152.803239,53.4065382 C168.079233,53.4065382 180.506496,41.5221566 180.506496,26.9148658 C180.506496,12.3084406 168.082718,0.425789932 152.880773,0.425789932" id="Fill-39"></path>
                        <path d="M324.012853,26.079298 L324.012853,47.9153671 C322.0623,48.4493896 317.376268,49.1123739 315.31856,49.1123739 C304.248583,49.1123739 294.896555,38.9469043 294.896555,26.9153851 C294.896555,14.8821349 304.248583,4.71666536 315.31856,4.71666536 C320.905384,4.71666536 325.499943,6.72639038 329.36446,10.8574918 L330.82193,12.4162837 L330.82193,2.08117325 L330.260025,1.88470143 C330.088404,1.82584643 325.943369,0.422847183 315.31856,0.422847183 C298.222689,0.422847183 284.314434,12.3072289 284.314434,26.9153851 C284.314434,42.7603618 296.773059,53.406192 315.31856,53.406192 C333.381432,53.406192 334.549674,44.9501139 334.590619,44.5900598 L334.594974,26.079298 L324.012853,26.079298 Z" id="Fill-41"></path>
                        <polygon id="Fill-43" points="261.299561 36.6117458 232.233791 0.422847183 223.322577 0.422847183 223.322577 5.73710714 262.065321 52.7432078 262.065321 53.406192 268.198369 53.406192 268.198369 0.422847183 261.299561 0.422847183"></polygon>
                        <polygon id="Fill-45" points="196.623868 10.4383231 207.205989 10.4383231 207.205989 7.40209767 196.623868 7.40209767"></polygon>
                        <polygon id="Fill-47" points="196.623868 2.53098122 207.205989 2.53098122 207.205989 0.423453043 196.623868 0.423453043"></polygon>
                        <polygon id="Fill-48" points="196.623868 6.21374606 207.205989 6.21374606 207.205989 3.58517806 196.623868 3.58517806"></polygon>
                        <polygon id="Fill-49" points="196.623868 53.4067979 207.205989 53.4067979 207.205989 11.7357295 196.623868 11.7357295"></polygon>
                    </g>
                    <g id="monkey">
                        <path d="M42.9140496,59.2997314 C41.6439321,59.2997314 40.6139191,60.5328306 40.6139191,62.0548967 C40.6139191,63.576095 41.6439321,64.810062 42.9140496,64.810062 C44.184167,64.810062 45.2141801,63.576095 45.2141801,62.0548967 C45.2141801,60.5328306 44.184167,59.2997314 42.9140496,59.2997314" id="Fill-50"></path>
                        <path d="M97.5426707,59.2997314 C96.2725533,59.2997314 95.2425402,60.5328306 95.2425402,62.0548967 C95.2425402,63.576095 96.2725533,64.810062 97.5426707,64.810062 C98.8127882,64.810062 99.8428012,63.576095 99.8428012,62.0548967 C99.8428012,60.5328306 98.8127882,59.2997314 97.5426707,59.2997314" id="Fill-51"></path>
                        <path d="M130.629375,62.4258665 C128.427241,63.2820081 126.245095,62.5124329 125.75409,60.7083892 C125.263955,58.9034799 126.651803,56.7462454 128.853937,55.8909694 C131.056071,55.0348278 133.239086,55.8035373 133.729221,57.6084467 C134.219357,59.413356 132.831509,61.5697248 130.629375,62.4258665 M70.4999995,98.7413344 C46.3086825,98.7032452 26.7180348,87.3474656 26.7180348,71.0902968 C26.7180348,70.7492253 26.7302013,70.4116163 26.7467129,70.0757387 C26.7527962,69.9640681 26.7580104,69.8532631 26.7658317,69.7433238 C26.7806053,69.5130571 26.8014621,69.2845219 26.824057,69.0559866 C26.8553423,68.7504072 26.8909727,68.4456935 26.9361625,68.1418455 C26.9405077,68.1124129 26.9439838,68.0821147 26.949198,68.0518164 C27.4358574,64.8566508 28.6829221,59.9803658 30.5652511,57.1704207 C35.0894454,50.6519712 43.158432,46.3098009 52.3632468,46.3098009 C59.4502242,46.3098009 65.8584856,48.8877481 70.4999995,53.045532 C75.1415135,48.8877481 81.5497749,46.3098009 88.6358833,46.3098009 C97.8415671,46.3098009 105.910554,50.6519712 110.433879,57.1704207 C112.317077,59.9803658 113.563273,64.8566508 114.050801,68.0518164 C114.055146,68.0821147 114.059491,68.1124129 114.062968,68.1418455 C114.108157,68.4456935 114.144657,68.7504072 114.175073,69.0559866 C114.197668,69.2845219 114.218525,69.5130571 114.234167,69.7433238 C114.24112,69.8532631 114.247203,69.9640681 114.252417,70.0757387 C114.268929,70.4116163 114.281095,70.7492253 114.281095,71.0902968 C114.281095,87.3474656 94.6904476,98.7032452 70.4999995,98.7413344 M15.2450396,60.7083892 C14.754904,62.5124329 12.571889,63.2820081 10.3706243,62.4258665 C8.16849057,61.5697248 6.78064226,59.413356 7.27077779,57.6084467 C7.76091333,55.8035373 9.94305929,55.0348278 12.145193,55.8909694 C14.3473268,56.7462454 15.7351751,58.9034799 15.2450396,60.7083892 M130.519007,44.2538491 C126.750004,44.2538491 123.447673,46.6352906 121.600974,50.20702 C115.317854,36.6351407 102.246704,24.061372 86.0930879,18.883836 C77.3775396,15.4194489 71.2569287,8.77028419 70.4999995,0.999219008 C69.7430704,8.77028419 63.6224595,15.4194489 54.9060421,18.883836 C38.7524264,24.061372 25.6821455,36.6351407 19.3990251,50.20702 C17.5523265,46.6352906 14.2491259,44.2538491 10.4801227,44.2538491 C4.69235204,44.2538491 -0.000434971727,49.866814 -0.000434971727,56.7903942 C-0.000434971727,63.7139744 4.69235204,69.3260737 10.4801227,69.3260737 C12.2407869,69.3260737 13.8989049,68.804944 15.355407,67.8873403 C15.8533638,90.3677671 40.3392836,104.960264 70.4999995,104.999219 C100.660715,104.960264 125.145766,90.3677671 125.644592,67.8873403 C127.101094,68.804944 128.758343,69.3260737 130.519007,69.3260737 C136.307647,69.3260737 140.999565,63.7139744 140.999565,56.7903942 C140.999565,49.866814 136.307647,44.2538491 130.519007,44.2538491" id="Fill-52"></path>
                    </g>
                </g>
            </g>
        </g>
    </g>
</svg>